[{"duration":0.1875,"durationTicks":96,"midi":77,"name":"F5","ticks":0,"time":0,"velocity":0.3937007874015748},{"duration":0.1875,"durationTicks":96,"midi":77,"name":"F5","ticks":1536,"time":3,"velocity":0.3937007874015748},{"duration":0.1875,"durationTicks":96,"midi":85,"name":"C#6","ticks":2688,"time":5.25,"velocity":0.3937007874015748},{"duration":0.1875,"durationTicks":96,"midi":77,"name":"F5","ticks":3072,"time":6,"velocity":0.3937007874015748},{"duration":0.1875,"durationTicks":96,"midi":77,"name":"F5","ticks":4608,"time":9,"velocity":0.3937007874015748},{"duration":0.1875,"durationTicks":96,"midi":82,"name":"A#5","ticks":4992,"time":9.75,"velocity":0.3937007874015748},{"duration":0.1875,"durationTicks":96,"midi":84,"name":"C6","ticks":5376,"time":10.5,"velocity":0.3937007874015748},{"duration":0.1875,"durationTicks":96,"midi":85,"name":"C#6","ticks":5760,"time":11.25,"velocity":0.3937007874015748},{"duration":0.1875,"durationTicks":96,"midi":77,"name":"F5","ticks":6144,"time":12,"velocity":0.3937007874015748},{"duration":0.1875,"durationTicks":96,"midi":77,"name":"F5","ticks":7680,"time":15,"velocity":0.3937007874015748},{"duration":0.1875,"durationTicks":96,"midi":82,"name":"A#5","ticks":8064,"time":15.75,"velocity":0.3937007874015748},{"duration":0.1875,"durationTicks":96,"midi":84,"name":"C6","ticks":8448,"time":16.5,"velocity":0.3937007874015748},{"duration":0.1875,"durationTicks":96,"midi":85,"name":"C#6","ticks":8832,"time":17.25,"velocity":0.3937007874015748},{"duration":0.1875,"durationTicks":96,"midi":77,"name":"F5","ticks":9216,"time":18,"velocity":0.3937007874015748},{"duration":0.1875,"durationTicks":96,"midi":77,"name":"F5","ticks":10752,"time":21,"velocity":0.3937007874015748},{"duration":0.1875,"durationTicks":96,"midi":82,"name":"A#5","ticks":11136,"time":21.75,"velocity":0.3937007874015748},{"duration":0.1875,"durationTicks":96,"midi":84,"name":"C6","ticks":11520,"time":22.5,"velocity":0.3937007874015748},{"duration":0.1875,"durationTicks":96,"midi":85,"name":"C#6","ticks":11904,"time":23.25,"velocity":0.3937007874015748},{"duration":0.1875,"durationTicks":96,"midi":78,"name":"F#5","ticks":12096,"time":23.625,"velocity":0.3937007874015748},{"duration":0.1875,"durationTicks":96,"midi":77,"name":"F5","ticks":12288,"time":24,"velocity":0.3937007874015748},{"duration":0.1875,"durationTicks":96,"midi":80,"name":"G#5","ticks":12480,"time":24.375,"velocity":0.3937007874015748},{"duration":0.1875,"durationTicks":96,"midi":82,"name":"A#5","ticks":12672,"time":24.75,"velocity":0.3937007874015748},{"duration":0.1875,"durationTicks":96,"midi":77,"name":"F5","ticks":13056,"time":25.5,"velocity":0.3937007874015748},{"duration":0.1875,"durationTicks":96,"midi":80,"name":"G#5","ticks":13248,"time":25.875,"velocity":0.3937007874015748},{"duration":0.1875,"durationTicks":96,"midi":82,"name":"A#5","ticks":13440,"time":26.25,"velocity":0.3937007874015748},{"duration":0.1875,"durationTicks":96,"midi":77,"name":"F5","ticks":13824,"time":27,"velocity":0.3937007874015748},{"duration":0.1875,"durationTicks":96,"midi":80,"name":"G#5","ticks":14016,"time":27.375,"velocity":0.3937007874015748},{"duration":0.1875,"durationTicks":96,"midi":82,"name":"A#5","ticks":14208,"time":27.75,"velocity":0.3937007874015748},{"duration":0.1875,"durationTicks":96,"midi":77,"name":"F5","ticks":14400,"time":28.125,"velocity":0.3937007874015748},{"duration":0.1875,"durationTicks":96,"midi":85,"name":"C#6","ticks":14592,"time":28.5,"velocity":0.3937007874015748},{"duration":0.09375,"durationTicks":48,"midi":84,"name":"C6","ticks":14784,"time":28.875,"velocity":0.3937007874015748},{"duration":0.09375,"durationTicks":48,"midi":85,"name":"C#6","ticks":14832,"time":28.96875,"velocity":0.3937007874015748},{"duration":0.1875,"durationTicks":96,"midi":84,"name":"C6","ticks":14880,"time":29.0625,"velocity":0.3937007874015748},{"duration":0.1875,"durationTicks":96,"midi":82,"name":"A#5","ticks":14976,"time":29.25,"velocity":0.3937007874015748},{"duration":0.1875,"durationTicks":96,"midi":80,"name":"G#5","ticks":15168,"time":29.625,"velocity":0.3937007874015748},{"duration":0.1875,"durationTicks":96,"midi":75,"name":"D#5","ticks":15360,"time":30,"velocity":0.3937007874015748},{"duration":0.1875,"durationTicks":96,"midi":77,"name":"F5","ticks":15552,"time":30.375,"velocity":0.3937007874015748},{"duration":0.1875,"durationTicks":96,"midi":80,"name":"G#5","ticks":15744,"time":30.75,"velocity":0.3937007874015748},{"duration":0.1875,"durationTicks":96,"midi":75,"name":"D#5","ticks":16128,"time":31.5,"velocity":0.3937007874015748},{"duration":0.1875,"durationTicks":96,"midi":77,"name":"F5","ticks":16320,"time":31.875,"velocity":0.3937007874015748},{"duration":0.1875,"durationTicks":96,"midi":80,"name":"G#5","ticks":16512,"time":32.25,"velocity":0.3937007874015748},{"duration":0.1875,"durationTicks":96,"midi":75,"name":"D#5","ticks":16896,"time":33,"velocity":0.3937007874015748},{"duration":0.1875,"durationTicks":96,"midi":77,"name":"F5","ticks":17088,"time":33.375,"velocity":0.3937007874015748},{"duration":0.1875,"durationTicks":96,"midi":80,"name":"G#5","ticks":17280,"time":33.75,"velocity":0.3937007874015748},{"duration":0.1875,"durationTicks":96,"midi":75,"name":"D#5","ticks":17472,"time":34.125,"velocity":0.3937007874015748},{"duration":0.1875,"durationTicks":96,"midi":89,"name":"F6","ticks":17664,"time":34.5,"velocity":0.3937007874015748},{"duration":0.09375,"durationTicks":48,"midi":87,"name":"D#6","ticks":17856,"time":34.875,"velocity":0.3937007874015748},{"duration":0.09375,"durationTicks":48,"midi":89,"name":"F6","ticks":17904,"time":34.96875,"velocity":0.3937007874015748},{"duration":0.1875,"durationTicks":96,"midi":87,"name":"D#6","ticks":17952,"time":35.0625,"velocity":0.3937007874015748},{"duration":0.1875,"durationTicks":96,"midi":85,"name":"C#6","ticks":18048,"time":35.25,"velocity":0.3937007874015748},{"duration":0.1875,"durationTicks":96,"midi":84,"name":"C6","ticks":18240,"time":35.625,"velocity":0.3937007874015748},{"duration":0.1875,"durationTicks":96,"midi":77,"name":"F5","ticks":18432,"time":36,"velocity":0.3937007874015748},{"duration":0.1875,"durationTicks":96,"midi":80,"name":"G#5","ticks":18624,"time":36.375,"velocity":0.3937007874015748},{"duration":0.1875,"durationTicks":96,"midi":82,"name":"A#5","ticks":18816,"time":36.75,"velocity":0.3937007874015748},{"duration":0.1875,"durationTicks":96,"midi":77,"name":"F5","ticks":19200,"time":37.5,"velocity":0.3937007874015748},{"duration":0.1875,"durationTicks":96,"midi":80,"name":"G#5","ticks":19392,"time":37.875,"velocity":0.3937007874015748},{"duration":0.1875,"durationTicks":96,"midi":82,"name":"A#5","ticks":19584,"time":38.25,"velocity":0.3937007874015748},{"duration":0.1875,"durationTicks":96,"midi":77,"name":"F5","ticks":19968,"time":39,"velocity":0.3937007874015748},{"duration":0.1875,"durationTicks":96,"midi":80,"name":"G#5","ticks":20160,"time":39.375,"velocity":0.3937007874015748},{"duration":0.1875,"durationTicks":96,"midi":82,"name":"A#5","ticks":20352,"time":39.75,"velocity":0.3937007874015748},{"duration":0.1875,"durationTicks":96,"midi":77,"name":"F5","ticks":20544,"time":40.125,"velocity":0.3937007874015748},{"duration":0.1875,"durationTicks":96,"midi":85,"name":"C#6","ticks":20736,"time":40.5,"velocity":0.3937007874015748},{"duration":0.09375,"durationTicks":48,"midi":84,"name":"C6","ticks":20928,"time":40.875,"velocity":0.3937007874015748},{"duration":0.09375,"durationTicks":48,"midi":85,"name":"C#6","ticks":20976,"time":40.96875,"velocity":0.3937007874015748},{"duration":0.1875,"durationTicks":96,"midi":84,"name":"C6","ticks":21024,"time":41.0625,"velocity":0.3937007874015748},{"duration":0.1875,"durationTicks":96,"midi":82,"name":"A#5","ticks":21120,"time":41.25,"velocity":0.3937007874015748},{"duration":0.1875,"durationTicks":96,"midi":80,"name":"G#5","ticks":21312,"time":41.625,"velocity":0.3937007874015748},{"duration":0.1875,"durationTicks":96,"midi":75,"name":"D#5","ticks":21504,"time":42,"velocity":0.3937007874015748},{"duration":0.1875,"durationTicks":96,"midi":77,"name":"F5","ticks":21696,"time":42.375,"velocity":0.3937007874015748},{"duration":0.1875,"durationTicks":96,"midi":73,"name":"C#5","ticks":21888,"time":42.75,"velocity":0.3937007874015748},{"duration":0.1875,"durationTicks":96,"midi":72,"name":"C5","ticks":22272,"time":43.5,"velocity":0.3937007874015748},{"duration":0.1875,"durationTicks":96,"midi":68,"name":"G#4","ticks":22656,"time":44.25,"velocity":0.3937007874015748},{"duration":0.1875,"durationTicks":96,"midi":70,"name":"A#4","ticks":23040,"time":45,"velocity":0.3937007874015748},{"duration":0.1875,"durationTicks":96,"midi":72,"name":"C5","ticks":23424,"time":45.75,"velocity":0.3937007874015748},{"duration":0.1875,"durationTicks":96,"midi":73,"name":"C#5","ticks":23808,"time":46.5,"velocity":0.3937007874015748},{"duration":0.1875,"durationTicks":96,"midi":73,"name":"C#5","ticks":24192,"time":47.25,"velocity":0.3937007874015748},{"duration":0.1875,"durationTicks":96,"midi":75,"name":"D#5","ticks":24384,"time":47.625,"velocity":0.3937007874015748},{"duration":0.1875,"durationTicks":96,"midi":77,"name":"F5","ticks":24576,"time":48,"velocity":0.3937007874015748},{"duration":0.1875,"durationTicks":96,"midi":77,"name":"F5","ticks":25152,"time":49.125,"velocity":0.3937007874015748},{"duration":0.1875,"durationTicks":96,"midi":75,"name":"D#5","ticks":25728,"time":50.25,"velocity":0.3937007874015748},{"duration":0.1875,"durationTicks":96,"midi":80,"name":"G#5","ticks":25920,"time":50.625,"velocity":0.3937007874015748},{"duration":0.1875,"durationTicks":96,"midi":82,"name":"A#5","ticks":26112,"time":51,"velocity":0.3937007874015748},{"duration":0.1875,"durationTicks":96,"midi":82,"name":"A#5","ticks":26688,"time":52.125,"velocity":0.3937007874015748},{"duration":0.1875,"durationTicks":96,"midi":77,"name":"F5","ticks":27072,"time":52.875,"velocity":0.3937007874015748},{"duration":0.1875,"durationTicks":96,"midi":84,"name":"C6","ticks":27264,"time":53.25,"velocity":0.3937007874015748},{"duration":0.1875,"durationTicks":96,"midi":85,"name":"C#6","ticks":27456,"time":53.625,"velocity":0.3937007874015748},{"duration":0.1875,"durationTicks":96,"midi":84,"name":"C6","ticks":27648,"time":54,"velocity":0.3937007874015748},{"duration":0.1875,"durationTicks":96,"midi":80,"name":"G#5","ticks":28416,"time":55.5,"velocity":0.3937007874015748},{"duration":0.1875,"durationTicks":96,"midi":82,"name":"A#5","ticks":28800,"time":56.25,"velocity":0.3937007874015748},{"duration":0.1875,"durationTicks":96,"midi":77,"name":"F5","ticks":29184,"time":57,"velocity":0.3937007874015748},{"duration":0.1875,"durationTicks":96,"midi":77,"name":"F5","ticks":30336,"time":59.25,"velocity":0.3937007874015748},{"duration":0.1875,"durationTicks":96,"midi":80,"name":"G#5","ticks":30528,"time":59.625,"velocity":0.3937007874015748},{"duration":0.1875,"durationTicks":96,"midi":82,"name":"A#5","ticks":30720,"time":60,"velocity":0.3937007874015748},{"duration":0.1875,"durationTicks":96,"midi":82,"name":"A#5","ticks":31104,"time":60.75,"velocity":0.3937007874015748},{"duration":0.1875,"durationTicks":96,"midi":82,"name":"A#5","ticks":31488,"time":61.5,"velocity":0.3937007874015748},{"duration":0.1875,"durationTicks":96,"midi":77,"name":"F5","ticks":31680,"time":61.875,"velocity":0.3937007874015748},{"duration":0.1875,"durationTicks":96,"midi":77,"name":"F5","ticks":31872,"time":62.25,"velocity":0.3937007874015748},{"duration":0.1875,"durationTicks":96,"midi":80,"name":"G#5","ticks":32064,"time":62.625,"velocity":0.3937007874015748},{"duration":0.1875,"durationTicks":96,"midi":82,"name":"A#5","ticks":32256,"time":63,"velocity":0.3937007874015748},{"duration":0.1875,"durationTicks":96,"midi":82,"name":"A#5","ticks":32640,"time":63.75,"velocity":0.3937007874015748},{"duration":0.1875,"durationTicks":96,"midi":82,"name":"A#5","ticks":33024,"time":64.5,"velocity":0.3937007874015748},{"duration":0.1875,"durationTicks":96,"midi":77,"name":"F5","ticks":33216,"time":64.875,"velocity":0.3937007874015748},{"duration":0.1875,"durationTicks":96,"midi":84,"name":"C6","ticks":33408,"time":65.25,"velocity":0.3937007874015748},{"duration":0.1875,"durationTicks":96,"midi":85,"name":"C#6","ticks":33600,"time":65.625,"velocity":0.3937007874015748},{"duration":0.1875,"durationTicks":96,"midi":84,"name":"C6","ticks":33792,"time":66,"velocity":0.3937007874015748},{"duration":0.1875,"durationTicks":96,"midi":85,"name":"C#6","ticks":34560,"time":67.5,"velocity":0.3937007874015748},{"duration":0.1875,"durationTicks":96,"midi":87,"name":"D#6","ticks":34944,"time":68.25,"velocity":0.3937007874015748},{"duration":0.1875,"durationTicks":96,"midi":89,"name":"F6","ticks":35328,"time":69,"velocity":0.3937007874015748},{"duration":0.09375,"durationTicks":48,"midi":89,"name":"F6","ticks":36096,"time":70.5,"velocity":0.3937007874015748},{"duration":0.1875,"durationTicks":96,"midi":89,"name":"F6","ticks":36096,"time":70.5,"velocity":0.3937007874015748},{"duration":0.09375,"durationTicks":48,"midi":87,"name":"D#6","ticks":36192,"time":70.6875,"velocity":0.3937007874015748},{"duration":0.09375,"durationTicks":48,"midi":86,"name":"D6","ticks":36240,"time":70.78125,"velocity":0.3937007874015748},{"duration":0.046875,"durationTicks":24,"midi":86,"name":"D6","ticks":36264,"time":70.828125,"velocity":0.3937007874015748},{"duration":0.1875,"durationTicks":96,"midi":87,"name":"D#6","ticks":36288,"time":70.875,"velocity":0.3937007874015748},{"duration":0.09375,"durationTicks":48,"midi":83,"name":"B5","ticks":36384,"time":71.0625,"velocity":0.3937007874015748},{"duration":0.09375,"durationTicks":48,"midi":82,"name":"A#5","ticks":36432,"time":71.15625,"velocity":0.3937007874015748},{"duration":0.1875,"durationTicks":96,"midi":85,"name":"C#6","ticks":36480,"time":71.25,"velocity":0.3937007874015748},{"duration":0.09375,"durationTicks":48,"midi":79,"name":"G5","ticks":36576,"time":71.4375,"velocity":0.3937007874015748},{"duration":0.09375,"durationTicks":48,"midi":78,"name":"F#5","ticks":36624,"time":71.53125,"velocity":0.3937007874015748},{"duration":0.1875,"durationTicks":96,"midi":84,"name":"C6","ticks":36672,"time":71.625,"velocity":0.3937007874015748},{"duration":0.09375,"durationTicks":48,"midi":75,"name":"D#5","ticks":36768,"time":71.8125,"velocity":0.3937007874015748},{"duration":0.09375,"durationTicks":48,"midi":74,"name":"D5","ticks":36816,"time":71.90625,"velocity":0.3937007874015748},{"duration":0.1875,"durationTicks":96,"midi":83,"name":"B5","ticks":36864,"time":72,"velocity":0.3937007874015748},{"duration":0.1875,"durationTicks":96,"midi":85,"name":"C#6","ticks":37056,"time":72.375,"velocity":0.3937007874015748},{"duration":0.1875,"durationTicks":96,"midi":86,"name":"D6","ticks":37248,"time":72.75,"velocity":0.3937007874015748},{"duration":0.1875,"durationTicks":96,"midi":85,"name":"C#6","ticks":37632,"time":73.5,"velocity":0.3937007874015748},{"duration":0.1875,"durationTicks":96,"midi":83,"name":"B5","ticks":37824,"time":73.875,"velocity":0.3937007874015748},{"duration":0.1875,"durationTicks":96,"midi":81,"name":"A5","ticks":38016,"time":74.25,"velocity":0.3937007874015748},{"duration":0.1875,"durationTicks":96,"midi":83,"name":"B5","ticks":38208,"time":74.625,"velocity":0.3937007874015748},{"duration":0.1875,"durationTicks":96,"midi":78,"name":"F#5","ticks":39360,"time":76.875,"velocity":0.3937007874015748},{"duration":0.1875,"durationTicks":96,"midi":83,"name":"B5","ticks":39552,"time":77.25,"velocity":0.3937007874015748},{"duration":0.1875,"durationTicks":96,"midi":78,"name":"F#5","ticks":39744,"time":77.625,"velocity":0.3937007874015748},{"duration":0.1875,"durationTicks":96,"midi":83,"name":"B5","ticks":39936,"time":78,"velocity":0.3937007874015748},{"duration":0.1875,"durationTicks":96,"midi":85,"name":"C#6","ticks":40128,"time":78.375,"velocity":0.3937007874015748},{"duration":0.1875,"durationTicks":96,"midi":86,"name":"D6","ticks":40320,"time":78.75,"velocity":0.3937007874015748},{"duration":0.1875,"durationTicks":96,"midi":85,"name":"C#6","ticks":40704,"time":79.5,"velocity":0.3937007874015748},{"duration":0.1875,"durationTicks":96,"midi":83,"name":"B5","ticks":40896,"time":79.875,"velocity":0.3937007874015748},{"duration":0.1875,"durationTicks":96,"midi":81,"name":"A5","ticks":41088,"time":80.25,"velocity":0.3937007874015748},{"duration":0.1875,"durationTicks":96,"midi":90,"name":"F#6","ticks":41280,"time":80.625,"velocity":0.3937007874015748},{"duration":0.1875,"durationTicks":96,"midi":88,"name":"E6","ticks":42432,"time":82.875,"velocity":0.3937007874015748},{"duration":0.1875,"durationTicks":96,"midi":86,"name":"D6","ticks":42624,"time":83.25,"velocity":0.3937007874015748},{"duration":0.1875,"durationTicks":96,"midi":85,"name":"C#6","ticks":42816,"time":83.625,"velocity":0.3937007874015748},{"duration":0.1875,"durationTicks":96,"midi":83,"name":"B5","ticks":43008,"time":84,"velocity":0.3937007874015748},{"duration":0.1875,"durationTicks":96,"midi":85,"name":"C#6","ticks":43200,"time":84.375,"velocity":0.3937007874015748},{"duration":0.1875,"durationTicks":96,"midi":86,"name":"D6","ticks":43392,"time":84.75,"velocity":0.3937007874015748},{"duration":0.1875,"durationTicks":96,"midi":85,"name":"C#6","ticks":43776,"time":85.5,"velocity":0.3937007874015748},{"duration":0.1875,"durationTicks":96,"midi":83,"name":"B5","ticks":43968,"time":85.875,"velocity":0.3937007874015748},{"duration":0.1875,"durationTicks":96,"midi":81,"name":"A5","ticks":44160,"time":86.25,"velocity":0.3937007874015748},{"duration":0.1875,"durationTicks":96,"midi":90,"name":"F#6","ticks":44352,"time":86.625,"velocity":0.3937007874015748},{"duration":0.1875,"durationTicks":96,"midi":88,"name":"E6","ticks":44736,"time":87.375,"velocity":0.3937007874015748},{"duration":0.1875,"durationTicks":96,"midi":86,"name":"D6","ticks":44928,"time":87.75,"velocity":0.3937007874015748},{"duration":0.1875,"durationTicks":96,"midi":88,"name":"E6","ticks":45120,"time":88.125,"velocity":0.3937007874015748},{"duration":0.1875,"durationTicks":96,"midi":86,"name":"D6","ticks":45312,"time":88.5,"velocity":0.3937007874015748},{"duration":0.1875,"durationTicks":96,"midi":85,"name":"C#6","ticks":45504,"time":88.875,"velocity":0.3937007874015748},{"duration":0.1875,"durationTicks":96,"midi":83,"name":"B5","ticks":45696,"time":89.25,"velocity":0.3937007874015748},{"duration":0.1875,"durationTicks":96,"midi":81,"name":"A5","ticks":45888,"time":89.625,"velocity":0.3937007874015748},{"duration":0.1875,"durationTicks":96,"midi":83,"name":"B5","ticks":46080,"time":90,"velocity":0.3937007874015748},{"duration":0.1875,"durationTicks":96,"midi":85,"name":"C#6","ticks":46272,"time":90.375,"velocity":0.3937007874015748},{"duration":0.1875,"durationTicks":96,"midi":86,"name":"D6","ticks":46464,"time":90.75,"velocity":0.3937007874015748},{"duration":0.1875,"durationTicks":96,"midi":85,"name":"C#6","ticks":46848,"time":91.5,"velocity":0.3937007874015748},{"duration":0.1875,"durationTicks":96,"midi":83,"name":"B5","ticks":47040,"time":91.875,"velocity":0.3937007874015748},{"duration":0.1875,"durationTicks":96,"midi":81,"name":"A5","ticks":47232,"time":92.25,"velocity":0.3937007874015748},{"duration":0.1875,"durationTicks":96,"midi":83,"name":"B5","ticks":47424,"time":92.625,"velocity":0.3937007874015748},{"duration":0.1875,"durationTicks":96,"midi":78,"name":"F#5","ticks":48576,"time":94.875,"velocity":0.3937007874015748},{"duration":0.1875,"durationTicks":96,"midi":83,"name":"B5","ticks":48768,"time":95.25,"velocity":0.3937007874015748},{"duration":0.1875,"durationTicks":96,"midi":78,"name":"F#5","ticks":48960,"time":95.625,"velocity":0.3937007874015748},{"duration":0.1875,"durationTicks":96,"midi":83,"name":"B5","ticks":49152,"time":96,"velocity":0.3937007874015748},{"duration":0.1875,"durationTicks":96,"midi":85,"name":"C#6","ticks":49344,"time":96.375,"velocity":0.3937007874015748},{"duration":0.1875,"durationTicks":96,"midi":86,"name":"D6","ticks":49536,"time":96.75,"velocity":0.3937007874015748},{"duration":0.1875,"durationTicks":96,"midi":85,"name":"C#6","ticks":49920,"time":97.5,"velocity":0.3937007874015748},{"duration":0.1875,"durationTicks":96,"midi":83,"name":"B5","ticks":50112,"time":97.875,"velocity":0.3937007874015748},{"duration":0.1875,"durationTicks":96,"midi":81,"name":"A5","ticks":50304,"time":98.25,"velocity":0.3937007874015748},{"duration":0.1875,"durationTicks":96,"midi":90,"name":"F#6","ticks":50496,"time":98.625,"velocity":0.3937007874015748},{"duration":0.1875,"durationTicks":96,"midi":88,"name":"E6","ticks":51648,"time":100.875,"velocity":0.3937007874015748},{"duration":0.1875,"durationTicks":96,"midi":86,"name":"D6","ticks":51840,"time":101.25,"velocity":0.3937007874015748},{"duration":0.1875,"durationTicks":96,"midi":85,"name":"C#6","ticks":52032,"time":101.625,"velocity":0.3937007874015748},{"duration":0.1875,"durationTicks":96,"midi":83,"name":"B5","ticks":52224,"time":102,"velocity":0.3937007874015748},{"duration":0.1875,"durationTicks":96,"midi":85,"name":"C#6","ticks":52416,"time":102.375,"velocity":0.3937007874015748},{"duration":0.1875,"durationTicks":96,"midi":86,"name":"D6","ticks":52608,"time":102.75,"velocity":0.3937007874015748},{"duration":0.1875,"durationTicks":96,"midi":85,"name":"C#6","ticks":52992,"time":103.5,"velocity":0.3937007874015748},{"duration":0.1875,"durationTicks":96,"midi":83,"name":"B5","ticks":53184,"time":103.875,"velocity":0.3937007874015748},{"duration":0.1875,"durationTicks":96,"midi":81,"name":"A5","ticks":53376,"time":104.25,"velocity":0.3937007874015748},{"duration":0.1875,"durationTicks":96,"midi":90,"name":"F#6","ticks":53568,"time":104.625,"velocity":0.3937007874015748},{"duration":0.1875,"durationTicks":96,"midi":88,"name":"E6","ticks":53952,"time":105.375,"velocity":0.3937007874015748},{"duration":0.1875,"durationTicks":96,"midi":86,"name":"D6","ticks":54144,"time":105.75,"velocity":0.3937007874015748},{"duration":0.1875,"durationTicks":96,"midi":88,"name":"E6","ticks":54336,"time":106.125,"velocity":0.3937007874015748},{"duration":0.1875,"durationTicks":96,"midi":86,"name":"D6","ticks":54528,"time":106.5,"velocity":0.3937007874015748},{"duration":0.1875,"durationTicks":96,"midi":85,"name":"C#6","ticks":54720,"time":106.875,"velocity":0.3937007874015748},{"duration":0.1875,"durationTicks":96,"midi":83,"name":"B5","ticks":54912,"time":107.25,"velocity":0.3937007874015748},{"duration":0.1875,"durationTicks":96,"midi":81,"name":"A5","ticks":55104,"time":107.625,"velocity":0.3937007874015748},{"duration":0.1875,"durationTicks":96,"midi":86,"name":"D6","ticks":55296,"time":108,"velocity":0.3937007874015748},{"duration":0.1875,"durationTicks":96,"midi":88,"name":"E6","ticks":55488,"time":108.375,"velocity":0.3937007874015748},{"duration":0.1875,"durationTicks":96,"midi":90,"name":"F#6","ticks":55680,"time":108.75,"velocity":0.3937007874015748},{"duration":0.1875,"durationTicks":96,"midi":88,"name":"E6","ticks":56064,"time":109.5,"velocity":0.3937007874015748},{"duration":0.1875,"durationTicks":96,"midi":90,"name":"F#6","ticks":56256,"time":109.875,"velocity":0.3937007874015748},{"duration":0.1875,"durationTicks":96,"midi":93,"name":"A6","ticks":56448,"time":110.25,"velocity":0.3937007874015748},{"duration":0.1875,"durationTicks":96,"midi":95,"name":"B6","ticks":56640,"time":110.625,"velocity":0.3937007874015748},{"duration":0.1875,"durationTicks":96,"midi":71,"name":"B4","ticks":57408,"time":112.125,"velocity":0.3937007874015748},{"duration":0.1875,"durationTicks":96,"midi":77,"name":"F5","ticks":58368,"time":114,"velocity":0.3937007874015748},{"duration":0.1875,"durationTicks":96,"midi":77,"name":"F5","ticks":59904,"time":117,"velocity":0.3937007874015748},{"duration":0.1875,"durationTicks":96,"midi":82,"name":"A#5","ticks":60288,"time":117.75,"velocity":0.3937007874015748},{"duration":0.1875,"durationTicks":96,"midi":84,"name":"C6","ticks":60672,"time":118.5,"velocity":0.3937007874015748},{"duration":0.1875,"durationTicks":96,"midi":85,"name":"C#6","ticks":61056,"time":119.25,"velocity":0.3937007874015748},{"duration":0.1875,"durationTicks":96,"midi":77,"name":"F5","ticks":61440,"time":120,"velocity":0.3937007874015748},{"duration":0.1875,"durationTicks":96,"midi":77,"name":"F5","ticks":62976,"time":123,"velocity":0.3937007874015748},{"duration":0.1875,"durationTicks":96,"midi":82,"name":"A#5","ticks":63360,"time":123.75,"velocity":0.3937007874015748},{"duration":0.1875,"durationTicks":96,"midi":84,"name":"C6","ticks":63744,"time":124.5,"velocity":0.3937007874015748},{"duration":0.1875,"durationTicks":96,"midi":85,"name":"C#6","ticks":64128,"time":125.25,"velocity":0.3937007874015748},{"duration":0.1875,"durationTicks":96,"midi":77,"name":"F5","ticks":64512,"time":126,"velocity":0.3937007874015748},{"duration":0.1875,"durationTicks":96,"midi":77,"name":"F5","ticks":66048,"time":129,"velocity":0.3937007874015748},{"duration":0.1875,"durationTicks":96,"midi":82,"name":"A#5","ticks":66432,"time":129.75,"velocity":0.3937007874015748},{"duration":0.1875,"durationTicks":96,"midi":84,"name":"C6","ticks":66816,"time":130.5,"velocity":0.3937007874015748},{"duration":0.1875,"durationTicks":96,"midi":85,"name":"C#6","ticks":67200,"time":131.25,"velocity":0.3937007874015748},{"duration":0.1875,"durationTicks":96,"midi":77,"name":"F5","ticks":67584,"time":132,"velocity":0.3937007874015748},{"duration":0.1875,"durationTicks":96,"midi":77,"name":"F5","ticks":69120,"time":135,"velocity":0.3937007874015748},{"duration":0.1875,"durationTicks":96,"midi":82,"name":"A#5","ticks":69504,"time":135.75,"velocity":0.3937007874015748},{"duration":0.1875,"durationTicks":96,"midi":84,"name":"C6","ticks":69888,"time":136.5,"velocity":0.3937007874015748},{"duration":0.1875,"durationTicks":96,"midi":85,"name":"C#6","ticks":70272,"time":137.25,"velocity":0.3937007874015748},{"duration":0.1875,"durationTicks":96,"midi":77,"name":"F5","ticks":70656,"time":138,"velocity":0.3937007874015748},{"duration":0.1875,"durationTicks":96,"midi":70,"name":"A#4","ticks":70944,"time":138.5625,"velocity":0.3937007874015748},{"duration":0.1875,"durationTicks":96,"midi":70,"name":"A#4","ticks":71328,"time":139.3125,"velocity":0.3937007874015748},{"duration":0.1875,"durationTicks":96,"midi":70,"name":"A#4","ticks":71712,"time":140.0625,"velocity":0.3937007874015748},{"duration":0.1875,"durationTicks":96,"midi":73,"name":"C#5","ticks":71808,"time":140.25,"velocity":0.3937007874015748},{"duration":0.1875,"durationTicks":96,"midi":70,"name":"A#4","ticks":71904,"time":140.4375,"velocity":0.3937007874015748},{"duration":0.1875,"durationTicks":96,"midi":77,"name":"F5","ticks":72192,"time":141,"velocity":0.3937007874015748},{"duration":0.1875,"durationTicks":96,"midi":66,"name":"F#4","ticks":72480,"time":141.5625,"velocity":0.3937007874015748},{"duration":0.1875,"durationTicks":96,"midi":82,"name":"A#5","ticks":72576,"time":141.75,"velocity":0.3937007874015748},{"duration":0.1875,"durationTicks":96,"midi":66,"name":"F#4","ticks":72864,"time":142.3125,"velocity":0.3937007874015748},{"duration":0.1875,"durationTicks":96,"midi":84,"name":"C6","ticks":72960,"time":142.5,"velocity":0.3937007874015748},{"duration":0.1875,"durationTicks":96,"midi":68,"name":"G#4","ticks":73248,"time":143.0625,"velocity":0.3937007874015748},{"duration":0.1875,"durationTicks":96,"midi":85,"name":"C#6","ticks":73344,"time":143.25,"velocity":0.3937007874015748},{"duration":0.1875,"durationTicks":96,"midi":68,"name":"G#4","ticks":73632,"time":143.8125,"velocity":0.3937007874015748},{"duration":0.1875,"durationTicks":96,"midi":77,"name":"F5","ticks":73728,"time":144,"velocity":0.3937007874015748},{"duration":0.1875,"durationTicks":96,"midi":65,"name":"F4","ticks":73920,"time":144.375,"velocity":0.3937007874015748},{"duration":0.1875,"durationTicks":96,"midi":73,"name":"C#5","ticks":74880,"time":146.25,"velocity":0.3937007874015748},{"duration":0.1875,"durationTicks":96,"midi":77,"name":"F5","ticks":75264,"time":147,"velocity":0.3937007874015748},{"duration":0.1875,"durationTicks":96,"midi":82,"name":"A#5","ticks":75648,"time":147.75,"velocity":0.3937007874015748},{"duration":0.1875,"durationTicks":96,"midi":84,"name":"C6","ticks":76032,"time":148.5,"velocity":0.3937007874015748},{"duration":0.1875,"durationTicks":96,"midi":85,"name":"C#6","ticks":76416,"time":149.25,"velocity":0.3937007874015748},{"duration":0.1875,"durationTicks":96,"midi":77,"name":"F5","ticks":76800,"time":150,"velocity":0.3937007874015748},{"duration":0.1875,"durationTicks":96,"midi":70,"name":"A#4","ticks":77088,"time":150.5625,"velocity":0.3937007874015748},{"duration":0.1875,"durationTicks":96,"midi":70,"name":"A#4","ticks":77472,"time":151.3125,"velocity":0.3937007874015748},{"duration":0.1875,"durationTicks":96,"midi":70,"name":"A#4","ticks":77856,"time":152.0625,"velocity":0.3937007874015748},{"duration":0.1875,"durationTicks":96,"midi":73,"name":"C#5","ticks":77952,"time":152.25,"velocity":0.3937007874015748},{"duration":0.1875,"durationTicks":96,"midi":70,"name":"A#4","ticks":78048,"time":152.4375,"velocity":0.3937007874015748},{"duration":0.1875,"durationTicks":96,"midi":77,"name":"F5","ticks":78336,"time":153,"velocity":0.3937007874015748},{"duration":0.1875,"durationTicks":96,"midi":82,"name":"A#5","ticks":78720,"time":153.75,"velocity":0.3937007874015748},{"duration":0.1875,"durationTicks":96,"midi":84,"name":"C6","ticks":79104,"time":154.5,"velocity":0.3937007874015748},{"duration":0.1875,"durationTicks":96,"midi":68,"name":"G#4","ticks":79392,"time":155.0625,"velocity":0.3937007874015748},{"duration":0.1875,"durationTicks":96,"midi":85,"name":"C#6","ticks":79488,"time":155.25,"velocity":0.3937007874015748},{"duration":0.1875,"durationTicks":96,"midi":68,"name":"G#4","ticks":79776,"time":155.8125,"velocity":0.3937007874015748},{"duration":0.1875,"durationTicks":96,"midi":77,"name":"F5","ticks":79872,"time":156,"velocity":0.3937007874015748},{"duration":0.1875,"durationTicks":96,"midi":70,"name":"A#4","ticks":80160,"time":156.5625,"velocity":0.3937007874015748},{"duration":0.1875,"durationTicks":96,"midi":70,"name":"A#4","ticks":80544,"time":157.3125,"velocity":0.3937007874015748},{"duration":0.1875,"durationTicks":96,"midi":73,"name":"C#5","ticks":81024,"time":158.25,"velocity":0.3937007874015748},{"duration":0.1875,"durationTicks":96,"midi":82,"name":"A#5","ticks":81792,"time":159.75,"velocity":0.3937007874015748}]